<?xml version="1.0" encoding="UTF-8" standalone="no"?>
<!-- Created with Inkscape (http://www.inkscape.org/) -->

<svg
   width="148.00117mm"
   height="167.65681mm"
   viewBox="0 0 148.00117 167.65681"
   version="1.1"
   id="svg5"
   xml:space="preserve"
   inkscape:version="1.2.2 (b0a8486541, 2022-12-01)"
   sodipodi:docname="coil64.svg"
   xmlns:inkscape="http://www.inkscape.org/namespaces/inkscape"
   xmlns:sodipodi="http://sodipodi.sourceforge.net/DTD/sodipodi-0.dtd"
   xmlns:xlink="http://www.w3.org/1999/xlink"
   xmlns="http://www.w3.org/2000/svg"
   xmlns:svg="http://www.w3.org/2000/svg"><sodipodi:namedview
     id="namedview7"
     pagecolor="#ffffff"
     bordercolor="#666666"
     borderopacity="1.0"
     inkscape:showpageshadow="2"
     inkscape:pageopacity="0.0"
     inkscape:pagecheckerboard="0"
     inkscape:deskcolor="#d1d1d1"
     inkscape:document-units="mm"
     showgrid="false"
     inkscape:zoom="0.69664703"
     inkscape:cx="119.14211"
     inkscape:cy="235.41334"
     inkscape:window-width="2560"
     inkscape:window-height="995"
     inkscape:window-x="0"
     inkscape:window-y="0"
     inkscape:window-maximized="1"
     inkscape:current-layer="layer1" /><defs
     id="defs2"><linearGradient
       inkscape:collect="always"
       id="linearGradient8643"><stop
         style="stop-color:#b9b900;stop-opacity:1;"
         offset="0"
         id="stop8639" /><stop
         style="stop-color:#979700;stop-opacity:1;"
         offset="1"
         id="stop8641" /></linearGradient><linearGradient
       inkscape:collect="always"
       xlink:href="#linearGradient8643"
       id="linearGradient8645"
       x1="302.12277"
       y1="136.50826"
       x2="248.13101"
       y2="134.17014"
       gradientUnits="userSpaceOnUse"
       spreadMethod="reflect" /></defs><g
     inkscape:label="Layer 1"
     inkscape:groupmode="layer"
     id="layer1"
     transform="translate(-41.334075,-59.541697)"><g
       id="g10950"
       transform="matrix(1.0004907,0,0,0.96093667,-190.53135,7.9684727)"><g
         id="g10135"
         transform="translate(-0.36792615,8.1196104)"><path
           id="path3582-3"
           style="fill:url(#linearGradient8645);fill-opacity:1;stroke:#000000;stroke-width:5;stroke-dasharray:none"
           d="m 245.79584,68.558902 v 129.282028 0.3514 h 0.0351 a 60.26796,19.681778 0 0 0 60.23301,19.33009 60.26796,19.681778 0 0 0 60.26764,-19.68149 60.26796,19.681778 0 0 0 -0.19999,-1.58957 V 68.558902 Z" /><ellipse
           style="fill:#b9b900;fill-opacity:1;stroke:#000000;stroke-width:5;stroke-dasharray:none"
           id="path3582"
           cx="306.0639"
           cy="67.731911"
           rx="60.26796"
           ry="19.681778" /></g><path
         id="path2286"
         style="fill:#110c43;fill-opacity:1;stroke:#000000;stroke-width:2.63952;stroke-dasharray:none"
         d="m 367.68075,101.78725 a 13.063814,66.566477 84.979005 0 1 -59.86356,13.18239 13.063814,66.566477 84.979005 0 1 -64.42221,-3.53911 13.023236,72.865323 85.462599 0 0 -10.30476,7.79191 13.023236,72.865323 85.462599 0 0 74.24433,7.06613 13.023236,72.865323 85.462599 0 0 71.00815,-18.80472 13.023236,72.865323 85.462599 0 0 -10.66195,-5.6966 z" /><path
         id="path2286-5"
         style="fill:#110c43;fill-opacity:1;stroke:#000000;stroke-width:2.63952;stroke-dasharray:none"
         d="m 367.68075,126.45419 a 13.063814,66.566477 84.979005 0 1 -59.86356,13.18238 13.063814,66.566477 84.979005 0 1 -64.42221,-3.53911 13.023236,72.865323 85.462599 0 0 -10.30476,7.79191 13.023236,72.865323 85.462599 0 0 74.24433,7.06613 13.023236,72.865323 85.462599 0 0 71.00815,-18.80471 13.023236,72.865323 85.462599 0 0 -10.66195,-5.6966 z" /><path
         id="path2286-3"
         style="fill:#110c43;fill-opacity:1;stroke:#000000;stroke-width:2.63952;stroke-dasharray:none"
         d="m 367.68075,151.20024 a 13.063814,66.566477 84.979005 0 1 -59.86356,13.18237 13.063814,66.566477 84.979005 0 1 -64.42221,-3.53911 13.023236,72.865323 85.462599 0 0 -10.30476,7.79191 13.023236,72.865323 85.462599 0 0 74.24433,7.06613 13.023236,72.865323 85.462599 0 0 71.00815,-18.80471 13.023236,72.865323 85.462599 0 0 -10.66195,-5.69659 z" /><path
         id="path2286-56"
         style="fill:#110c43;fill-opacity:1;stroke:#000000;stroke-width:2.63952;stroke-dasharray:none"
         d="m 367.68075,175.74155 a 13.063814,66.566477 84.979005 0 1 -59.86356,13.18237 13.063814,66.566477 84.979005 0 1 -64.4222,-3.53911 13.023236,72.865323 85.462599 0 0 -10.30476,7.79191 13.023236,72.865323 85.462599 0 0 74.24432,7.06613 13.023236,72.865323 85.462599 0 0 71.00815,-18.80471 13.023236,72.865323 85.462599 0 0 -10.66195,-5.69659 z" /></g></g></svg>
